<svg width="26" height="26" viewBox="0 0 26 26" fill="none" xmlns="http://www.w3.org/2000/svg">
<path d="M24.5322 11.5864L22.1588 9.21312V5.83979C22.1588 5.30935 21.9482 4.80064 21.573 4.42558C21.1979 4.0505 20.6892 3.83979 20.1588 3.83979H16.7855L14.4122 1.46646C14.2274 1.2794 14.0072 1.13088 13.7647 1.02952C13.522 0.928163 13.2618 0.875977 12.9988 0.875977C12.7359 0.875977 12.4755 0.928163 12.233 1.02952C11.9903 1.13088 11.7703 1.2794 11.5855 1.46646L9.21215 3.83979H5.83881C5.30837 3.83979 4.79967 4.0505 4.4246 4.42558C4.04952 4.80064 3.83881 5.30935 3.83881 5.83979V9.21312L1.46548 11.5864C1.27843 11.7712 1.12991 11.9914 1.02855 12.2339C0.927187 12.4766 0.875 12.7368 0.875 12.9998C0.875 13.2627 0.927187 13.5231 1.02855 13.7656C1.12991 14.0083 1.27843 14.2283 1.46548 14.4131L3.83881 16.7864V20.1598C3.83881 20.6903 4.04952 21.1989 4.4246 21.574C4.79967 21.9491 5.30837 22.1598 5.83881 22.1598H9.21215L11.5855 24.5331C11.7703 24.7202 11.9903 24.8687 12.233 24.97C12.4755 25.0714 12.7359 25.1236 12.9988 25.1236C13.2618 25.1236 13.522 25.0714 13.7647 24.97C14.0072 24.8687 14.2274 24.7202 14.4122 24.5331L16.7855 22.1598H20.1588C20.6892 22.1598 21.1979 21.9491 21.573 21.574C21.9482 21.1989 22.1588 20.6903 22.1588 20.1598V16.7864L24.5322 14.4131C24.7192 14.2283 24.8678 14.0083 24.9691 13.7656C25.0704 13.5231 25.1226 13.2627 25.1226 12.9998C25.1226 12.7368 25.0704 12.4766 24.9691 12.2339C24.8678 11.9914 24.7192 11.7712 24.5322 11.5864ZM18.4922 10.4131L11.9188 16.9998C11.8264 17.0932 11.7164 17.1673 11.5951 17.2178C11.4738 17.2682 11.3435 17.2938 11.2122 17.2931C11.0804 17.2962 10.9495 17.2715 10.8279 17.2211C10.7062 17.1706 10.5964 17.0952 10.5055 16.9998L7.50548 13.9998C7.41113 13.9079 7.33615 13.798 7.28496 13.6765C7.23376 13.5552 7.20739 13.4248 7.20739 13.2931C7.20739 13.1614 7.23376 13.0309 7.28496 12.9096C7.33615 12.7883 7.41113 12.6784 7.50548 12.5864C7.69297 12.3992 7.94715 12.294 8.21215 12.294C8.47715 12.294 8.73131 12.3992 8.91881 12.5864L11.2122 14.8797L17.0788 8.99979C17.2663 8.81252 17.5204 8.70734 17.7855 8.70734C18.0504 8.70734 18.3047 8.81252 18.4922 8.99979C18.5864 9.09171 18.6615 9.2016 18.7127 9.32296C18.7639 9.44434 18.7903 9.57472 18.7903 9.70646C18.7903 9.83818 18.7639 9.96856 18.7127 10.0899C18.6615 10.2113 18.5864 10.3212 18.4922 10.4131Z" fill="#35BA80"/>
</svg>
